<?xml version="1.0" encoding="UTF-8"?>
<svg version="1.1" xmlns="http://www.w3.org/2000/svg" width="500" height="500">
<path d="M0 0 C165 0 330 0 500 0 C500 165 500 330 500 500 C335 500 170 500 0 500 C0 335 0 170 0 0 Z " fill="#5B5B5B" transform="translate(0,0)"/>
<path d="M0 0 C1.4606285 2.64738916 2 3.89448334 2 7 C2.598125 6.67 3.19625 6.34 3.8125 6 C6 5 6 5 9 5 C10.6875 6.5 10.6875 6.5 12 8 C12.33 7.01 12.66 6.02 13 5 C13.66 5 14.32 5 15 5 C15 5.99 15 6.98 15 8 C15.99 8 16.98 8 18 8 C18.99 9.485 18.99 9.485 20 11 C20.66 11.33 21.32 11.66 22 12 C22.33 12.33 22.66 12.66 23 13 C23 11.68 23 10.36 23 9 C22.01 8.67 21.02 8.34 20 8 C20.804375 8.185625 21.60875 8.37125 22.4375 8.5625 C23.283125 8.706875 24.12875 8.85125 25 9 C25.33 8.67 25.66 8.34 26 8 C28.48890985 7.92653749 30.94959072 7.9076359 33.4375 7.9375 C34.13166016 7.94201172 34.82582031 7.94652344 35.54101562 7.95117188 C37.36070809 7.9635028 39.1803607 7.98141118 41 8 C41.66 8 42.32 8 43 8 C45.66666667 8 48.33333333 8 51 8 C51.495 9.98 51.495 9.98 52 12 C53.32 12 54.64 12 56 12 C56 11.01 56 10.02 56 9 C55.34 8.67 54.68 8.34 54 8 C56.97 8 59.94 8 63 8 C63 7.01 63 6.02 63 5 C64.65 5.33 66.3 5.66 68 6 C68 6.66 68 7.32 68 8 C68.9590625 8.2165625 68.9590625 8.2165625 69.9375 8.4375 C72 9 72 9 73 10 C73 9.34 73 8.68 73 8 C78.94 8 84.88 8 91 8 C91 10.31 91 12.62 91 15 C93.31 15 95.62 15 98 15 C98 15.66 98 16.32 98 17 C96.02 17.66 94.04 18.32 92 19 C92 20.32 92 21.64 92 23 C89.33333333 23 86.66666667 23 84 23 C83.34 24.32 82.68 25.64 82 27 C59.23 27 36.46 27 13 27 C13 25.68 13 24.36 13 23 C9.7 22.67 6.4 22.34 3 22 C3 21.67 3 21.34 3 21 C4.65 21 6.3 21 8 21 C8 20.34 8 19.68 8 19 C7.01 18.67 6.02 18.34 5 18 C5.99 18 6.98 18 8 18 C8 17.34 8 16.68 8 16 C6.35 16 4.7 16 3 16 C3 15.01 3 14.02 3 13 C2.34 13 1.68 13 1 13 C0.67 13.66 0.34 14.32 0 15 C-2.4375 15.75 -2.4375 15.75 -5 16 C-5.66 15.34 -6.32 14.68 -7 14 C-6.625 11.875 -6.625 11.875 -6 10 C-5.34 10 -4.68 10 -4 10 C-4.33 11.32 -4.66 12.64 -5 14 C-4.34 14 -3.68 14 -3 14 C-3 13.38511719 -3 12.77023437 -3 12.13671875 C-3 8.7578125 -3 5.37890625 -3 2 C-2.01 1.34 -1.02 0.68 0 0 Z " fill="#606060" transform="translate(373,473)"/>
<path d="M0 0 C1.32 0.33 2.64 0.66 4 1 C3.8125 3.375 3.8125 3.375 3 6 C0.27248751 7.52419816 -2.32502171 8.07222705 -5.375 8.75 C-13.04741598 11.39566068 -16.58398578 16.52456054 -20.45703125 23.3984375 C-23.2701347 28.14154357 -26.66174921 32.67906959 -30.58203125 36.5703125 C-32.77287906 38.77926649 -34.30304498 41.40153762 -36 44 C-36.515625 44.66 -37.03125 45.32 -37.5625 46 C-39.11958992 48.04191991 -39.11958992 48.04191991 -40.3125 50.75 C-43.5504057 56.98596653 -47.90106668 62.20100393 -53 67 C-49.23008792 66.03560389 -47.2249694 65.2249694 -44.4375 62.4375 C-41.78126165 59.78126165 -40.63584267 59.38272028 -37 59 C-35.515 58.505 -35.515 58.505 -34 58 C-33.71125 57.4225 -33.4225 56.845 -33.125 56.25 C-31.62322023 53.24644046 -29.3667705 51.3667705 -27 49 C-25.9590934 47.35857037 -24.95495674 45.69287785 -24 44 C-21.74787369 40.41707178 -19.92911889 39.45262213 -16 38 C-15.64831958 51.0317132 -17.22361359 62.91933461 -20.67871094 75.44482422 C-21.7387403 79.39739117 -22.18957655 82.91146572 -22 87 C-24 85 -24 85 -24.23046875 81.55859375 C-24.22647911 80.18482696 -24.21173177 78.81105886 -24.1875 77.4375 C-24.18685547 76.73947266 -24.18621094 76.04144531 -24.18554688 75.32226562 C-24.14031158 70.14031158 -24.14031158 70.14031158 -23 69 C-20.90680984 60.46370887 -19.92973665 51.7236992 -19 43 C-20.0842148 44.54104688 -21.16732521 46.08287078 -22.25 47.625 C-22.89324219 48.53894531 -23.53648437 49.45289063 -24.19921875 50.39453125 C-25.538641 52.33248058 -26.81733255 54.31268561 -28.0625 56.3125 C-30.46383423 59.64338296 -32.61594516 61.65188032 -36 64 C-38.6875 64.125 -38.6875 64.125 -41 64 C-41.44988281 64.45503906 -41.89976562 64.91007812 -42.36328125 65.37890625 C-44.30439958 67.30149362 -45.92363352 67.94082934 -48.5 68.8125 C-49.2734375 69.08707031 -50.046875 69.36164063 -50.84375 69.64453125 C-53 70 -53 70 -56 68 C-56.8125 65.5625 -56.8125 65.5625 -57 63 C-54.42595029 59.13892543 -52.38979741 59.05680308 -48 58 C-48 57.34 -48 56.68 -48 56 C-47.01 55.505 -47.01 55.505 -46 55 C-42.14437147 50.40290445 -42.70252601 45.67404099 -43 40 C-40.69 40 -38.38 40 -36 40 C-35.896875 39.236875 -35.79375 38.47375 -35.6875 37.6875 C-34.94932885 34.80192188 -34.37859197 33.73820183 -32 32 C-31.01 32 -30.02 32 -29 32 C-28.87625 31.4225 -28.7525 30.845 -28.625 30.25 C-27.99351176 27.97664233 -27.11141809 26.0746471 -26 24 C-25.34 24 -24.68 24 -24 24 C-24 23.34 -24 22.68 -24 22 C-23.34 22 -22.68 22 -22 22 C-21.88785156 21.26394531 -21.77570313 20.52789062 -21.66015625 19.76953125 C-20.07132909 11.90847137 -20.07132909 11.90847137 -16.8671875 9.19140625 C-14.61342549 7.97031655 -12.38589458 6.93262672 -10 6 C-9.34 5.67 -8.68 5.34 -8 5 C-7.01 5.33 -6.02 5.66 -5 6 C-4.67 5.01 -4.34 4.02 -4 3 C-2.68 3.33 -1.36 3.66 0 4 C0 2.68 0 1.36 0 0 Z " fill="#353535" transform="translate(184,336)"/>
<path d="M0 0 C3.72237934 2.76519608 4.93015495 5.55602824 6 10 C6.43333566 13.32722095 6.74875011 16.65440935 7 20 C7.56847656 20.12117188 8.13695312 20.24234375 8.72265625 20.3671875 C10.33070545 20.71617981 11.93610167 21.07755433 13.5390625 21.44921875 C15.65900246 21.9236815 17.7974897 22.31384741 19.9375 22.6875 C23 24 23 24 24.375 27.4375 C24.58125 28.613125 24.7875 29.78875 25 31 C25.495 32.485 25.495 32.485 26 34 C26.99 34.495 26.99 34.495 28 35 C24.55771124 34.74501565 23.83640913 33.8118705 21.5 31.125 C20.85998047 30.31869141 20.85998047 30.31869141 20.20703125 29.49609375 C18.12988103 26.92150303 16.4378846 25.21918972 13.078125 24.70703125 C12.37171875 24.63871094 11.6653125 24.57039063 10.9375 24.5 C7 24 7 24 5.359375 22.98046875 C3.24076815 19.89387773 2.89185665 16.43743639 2.3125 12.8125 C2.18294922 12.06291016 2.05339844 11.31332031 1.91992188 10.54101562 C1.60259462 8.69581641 1.29986709 6.848117 1 5 C-1.79200853 3.76326744 -1.79200853 3.76326744 -5 3 C-7.17588891 3.80135104 -7.17588891 3.80135104 -8.875 5.375 C-9.47054687 5.85710937 -10.06609375 6.33921875 -10.6796875 6.8359375 C-11.11539063 7.22007812 -11.55109375 7.60421875 -12 8 C-11.67 6.02 -11.34 4.04 -11 2 C-3.94919169 -0.62355658 -3.94919169 -0.62355658 0 0 Z " fill="#3A3A3A" transform="translate(196,320)"/>
<path d="M0 0 C1.4606285 2.64738916 2 3.89448334 2 7 C2.598125 6.67 3.19625 6.34 3.8125 6 C6 5 6 5 9 5 C10.75 7.3125 10.75 7.3125 12 10 C11 13 11 13 9 15 C6.17042171 14.63723355 3.70915709 13.90305236 1 13 C0.67 13.66 0.34 14.32 0 15 C-2.4375 15.75 -2.4375 15.75 -5 16 C-5.66 15.34 -6.32 14.68 -7 14 C-6.625 11.875 -6.625 11.875 -6 10 C-5.34 10 -4.68 10 -4 10 C-4.33 11.32 -4.66 12.64 -5 14 C-4.34 14 -3.68 14 -3 14 C-3 13.38511719 -3 12.77023437 -3 12.13671875 C-3 8.7578125 -3 5.37890625 -3 2 C-2.01 1.34 -1.02 0.68 0 0 Z " fill="#686868" transform="translate(373,473)"/>
<path d="M0 0 C0.35168042 13.0317132 -1.22361359 24.91933461 -4.67871094 37.44482422 C-5.7387403 41.39739117 -6.18957655 44.91146572 -6 49 C-8 47 -8 47 -8.23046875 43.55859375 C-8.22647911 42.18482696 -8.21173177 40.81105886 -8.1875 39.4375 C-8.18685547 38.73947266 -8.18621094 38.04144531 -8.18554688 37.32226562 C-8.14031158 32.14031158 -8.14031158 32.14031158 -7 31 C-4.90637816 22.46194844 -3.93949349 13.72386815 -3 5 C-5.31 6.65 -7.62 8.3 -10 10 C-5.35714286 0 -5.35714286 0 0 0 Z " fill="#282828" transform="translate(168,374)"/>
<path d="M0 0 C0.495 1.485 0.495 1.485 1 3 C-1.75263511 7.94646459 -5.91724568 12.13793511 -10 16 C-10.495 16.598125 -10.99 17.19625 -11.5 17.8125 C-13.62133985 19.49189405 -15.35178957 19 -18 19 C-18.45375 19.45761719 -18.9075 19.91523438 -19.375 20.38671875 C-21.30909049 22.30686148 -22.92990168 22.94295007 -25.5 23.8125 C-26.2734375 24.08707031 -27.046875 24.36164063 -27.84375 24.64453125 C-30 25 -30 25 -33 23 C-32.6189482 20.23737447 -32.16402868 19.15856106 -30.125 17.1875 C-29.42375 16.795625 -28.7225 16.40375 -28 16 C-27.01 16.33 -26.02 16.66 -25 17 C-26.65 18.65 -28.3 20.3 -30 22 C-26.23008792 21.03560389 -24.2249694 20.2249694 -21.4375 17.4375 C-18.78126165 14.78126165 -17.63584267 14.38272028 -14 14 C-13.01 13.67 -12.02 13.34 -11 13 C-10.71125 12.4225 -10.4225 11.845 -10.125 11.25 C-8.60387378 8.20774755 -6.51286104 6.26157493 -4 4 C-3.34 4 -2.68 4 -2 4 C-1.34 2.68 -0.68 1.36 0 0 Z " fill="#3B3B3B" transform="translate(161,381)"/>
<path d="M0 0 C0.66 0.99 1.32 1.98 2 3 C2.66 2.67 3.32 2.34 4 2 C8.69151115 2.11982249 13.97185831 2.48241144 18 5 C18.33 6.65 18.66 8.3 19 10 C14.38 10 9.76 10 5 10 C4.34 8.35 3.68 6.7 3 5 C2.01 5.33 1.02 5.66 0 6 C-2.3406065 5.72230092 -4.67624308 5.39460023 -7 5 C-7 4.67 -7 4.34 -7 4 C-5.02 3.67 -3.04 3.34 -1 3 C-0.67 2.01 -0.34 1.02 0 0 Z " fill="#626262" transform="translate(268,232)"/>
<path d="M0 0 C1.65 0.33 3.3 0.66 5 1 C5 1.66 5 2.32 5 3 C6.32 3.33 7.64 3.66 9 4 C9 5.98 9 7.96 9 10 C5.32937509 11.57312496 3.55697326 12.14440048 -0.375 11.125 C-1.24125 10.75375 -2.1075 10.3825 -3 10 C-4.125 5.25 -4.125 5.25 -3 3 C-2.01 3 -1.02 3 0 3 C0 2.01 0 1.02 0 0 Z " fill="#6D6D6D" transform="translate(436,478)"/>
<path d="M0 0 C0.33 1.32 0.66 2.64 1 4 C-0.32 3.67 -1.64 3.34 -3 3 C-3.33 7.29 -3.66 11.58 -4 16 C-3.01 16.33 -2.02 16.66 -1 17 C-0.67 19.31 -0.34 21.62 0 24 C-3 23 -3 23 -3.9140625 21.36328125 C-5.34186832 17.24461061 -6.42128683 13.3403488 -7 9 C-7.3403125 7.700625 -7.3403125 7.700625 -7.6875 6.375 C-8.06222996 3.52705228 -7.59629491 2.3524346 -6 0 C-3.50907189 -1.24546405 -2.58919267 -0.7767578 0 0 Z " fill="#393939" transform="translate(216,364)"/>
<path d="M0 0 C2.24993359 -0.02707139 4.49996095 -0.04642829 6.75 -0.0625 C8.00296875 -0.07410156 9.2559375 -0.08570313 10.546875 -0.09765625 C13.28536501 -0.02021027 15.41880293 0.17219185 18 1 C18 1.66 18 2.32 18 3 C18.66 3.33 19.32 3.66 20 4 C16.80843552 5.06385483 14.41502524 5.16677982 11.0625 5.1875 C9.50208984 5.20876953 9.50208984 5.20876953 7.91015625 5.23046875 C5.00735037 5.00058211 3.37480885 4.65850919 1 3 C0.67 2.01 0.34 1.02 0 0 Z " fill="#6C6C6C" transform="translate(444,165)"/>
<path d="M0 0 C2.475 0.99 2.475 0.99 5 2 C4.34 2.66 3.68 3.32 3 4 C2.01 4 1.02 4 0 4 C0 6.31 0 8.62 0 11 C-2.97 9.35 -5.94 7.7 -9 6 C-8.67 4.68 -8.34 3.36 -8 2 C-5.53925394 0.76962697 -3.7202437 1 -1 1 C-0.67 0.67 -0.34 0.34 0 0 Z " fill="#717171" transform="translate(456,285)"/>
<path d="M0 0 C0.33 0 0.66 0 1 0 C1.53602941 18.04632353 1.53602941 18.04632353 -1.33203125 26.78515625 C-2.17209621 29.57063481 -2.23423916 32.11105041 -2 35 C-4 33 -4 33 -4.23046875 29.55859375 C-4.22647911 28.18482696 -4.21173177 26.81105886 -4.1875 25.4375 C-4.18685547 24.73947266 -4.18621094 24.04144531 -4.18554688 23.32226562 C-4.14031158 18.14031158 -4.14031158 18.14031158 -3 17 C-1.62887403 11.40837691 -0.744137 5.70505036 0 0 Z " fill="#323232" transform="translate(164,388)"/>
<path d="M0 0 C1.2065625 0.0309375 1.2065625 0.0309375 2.4375 0.0625 C2.52689932 3.28087539 2.37096845 5.98205413 1.4375 9.0625 C1.128125 10.09375 0.81875 11.125 0.5 12.1875 C-0.5625 15.0625 -0.5625 15.0625 -2.5625 17.0625 C-3.80655507 5.82157384 -3.80655507 5.82157384 -3.5625 1.0625 C-2.5625 0.0625 -2.5625 0.0625 0 0 Z " fill="#4B4B4B" transform="translate(133.5625,230.9375)"/>
<path d="M0 0 C2.125 0.9375 2.125 0.9375 4 2 C2.02 2.99 2.02 2.99 0 4 C0 4.99 0 5.98 0 7 C0 10 0 13 0 16 C-1.32 16.33 -2.64 16.66 -4 17 C-4.19601608 15.25093341 -4.38147403 13.50068154 -4.5625 11.75 C-4.66691406 10.77546875 -4.77132812 9.8009375 -4.87890625 8.796875 C-4.98974468 6.2368648 -4.77738092 4.41851841 -4 2 C-4 2.66 -4 3.32 -4 4 C-3.34 4 -2.68 4 -2 4 C-2 3.01 -2 2.02 -2 1 C-1.34 0.67 -0.68 0.34 0 0 Z " fill="#767676" transform="translate(135,247)"/>
<path d="M0 0 C2 1 2 1 2 1 Z M-2 0 C-1.34 0.66 -0.68 1.32 0 2 C-1 5 -1 5 -2.58203125 5.94921875 C-11.78892704 8.99668513 -21.42524145 8.27177262 -31 8 C-28.30827388 5.30827388 -26.66357592 5.61350497 -22.8984375 5.3671875 C-21.68671875 5.28339844 -20.475 5.19960938 -19.2265625 5.11328125 C-17.95554687 5.03464844 -16.68453125 4.95601563 -15.375 4.875 C-13.456875 4.74544922 -13.456875 4.74544922 -11.5 4.61328125 C-8.33378486 4.40062501 -5.16724793 4.19657037 -2 4 C-2 2.68 -2 1.36 -2 0 Z " fill="#6E6E6E" transform="translate(303,280)"/>
<path d="M0 0 C0.33 0.99 0.66 1.98 1 3 C-0.109375 4.90234375 -0.109375 4.90234375 -1.75 6.9375 C-2.54664063 7.94103516 -2.54664063 7.94103516 -3.359375 8.96484375 C-3.90078125 9.63644531 -4.4421875 10.30804688 -5 11 C-5.49113281 11.71542969 -5.98226562 12.43085938 -6.48828125 13.16796875 C-8.86101043 16.04344675 -11.42107619 16.37211863 -15 17 C-17.4375 16.125 -17.4375 16.125 -19 15 C-18.236875 14.855625 -17.47375 14.71125 -16.6875 14.5625 C-13.91827092 14.0367406 -13.91827092 14.0367406 -11 13 C-10.71125 12.4225 -10.4225 11.845 -10.125 11.25 C-8.60387378 8.20774755 -6.51286104 6.26157493 -4 4 C-3.34 4 -2.68 4 -2 4 C-1.34 2.68 -0.68 1.36 0 0 Z " fill="#313131" transform="translate(161,381)"/>
<path d="M0 0 C3.70344727 2.75113226 4.99351465 5.5546897 6 10 C6.14773756 13.00892172 6.12037524 15.99061889 6 19 C5.67 19 5.34 19 5 19 C4.67 15.37 4.34 11.74 4 8 C3.34 8 2.68 8 2 8 C1.773125 7.360625 1.54625 6.72125 1.3125 6.0625 C0.14890153 3.83606869 0.14890153 3.83606869 -2.1875 2.9375 C-6.41104247 3.0313565 -8.8387598 5.36715153 -12 8 C-11.67 6.02 -11.34 4.04 -11 2 C-3.94919169 -0.62355658 -3.94919169 -0.62355658 0 0 Z " fill="#414141" transform="translate(196,320)"/>
<path d="M0 0 C1.65 0 3.3 0 5 0 C4.125 4.75 4.125 4.75 3 7 C4.32 6.67 5.64 6.34 7 6 C7 5.01 7 4.02 7 3 C7.66 3 8.32 3 9 3 C9 2.34 9 1.68 9 1 C8.34 0.67 7.68 0.34 7 0 C8.32 0.33 9.64 0.66 11 1 C11.125 3.875 11.125 3.875 11 7 C9 9 9 9 6.8359375 9.1953125 C5.61777344 9.16050781 5.61777344 9.16050781 4.375 9.125 C3.55773437 9.10695313 2.74046875 9.08890625 1.8984375 9.0703125 C1.27195312 9.04710937 0.64546875 9.02390625 0 9 C0 8.01 0 7.02 0 6 C0.66 6 1.32 6 2 6 C2.33 4.35 2.66 2.7 3 1 C2.01 1.33 1.02 1.66 0 2 C0 1.34 0 0.68 0 0 Z " fill="#ABABAB" transform="translate(478,479)"/>
<path d="M0 0 C6.15234375 -0.09765625 6.15234375 -0.09765625 8 0 C9 1 9 1 9.0625 4.0625 C9.041875 5.031875 9.02125 6.00125 9 7 C6 7 3 7 0 7 C0 4.69 0 2.38 0 0 Z " fill="#A7A7A7" transform="translate(406,481)"/>
<path d="M0 0 C3.69900008 0.88776002 7.34550461 1.94581864 11 3 C10.34 4.98 9.68 6.96 9 9 C7.35 8.01 5.7 7.02 4 6 C3.67 6.66 3.34 7.32 3 8 C3 7.34 3 6.68 3 6 C1.68 5.67 0.36 5.34 -1 5 C-0.67 3.35 -0.34 1.7 0 0 Z " fill="#767676" transform="translate(200,296)"/>
<path d="M0 0 C1.32 0.33 2.64 0.66 4 1 C3.8125 3.375 3.8125 3.375 3 6 C-1.2169156 8.76735086 -6.14510439 8.19038806 -11 8 C-10.01 7.01 -9.02 6.02 -8 5 C-7.01 5.33 -6.02 5.66 -5 6 C-4.67 5.01 -4.34 4.02 -4 3 C-2.68 3.33 -1.36 3.66 0 4 C0 2.68 0 1.36 0 0 Z " fill="#3B3B3B" transform="translate(184,336)"/>
<path d="M0 0 C0.78375 0.04125 1.5675 0.0825 2.375 0.125 C3.035 1.775 3.695 3.425 4.375 5.125 C3.1875 6.6875 3.1875 6.6875 1.375 8.125 C-1.3125 7.8125 -1.3125 7.8125 -3.625 7.125 C-4.25 4.75 -4.25 4.75 -4.625 2.125 C-2.625 0.125 -2.625 0.125 0 0 Z " fill="#D1D1D1" transform="translate(380.625,479.875)"/>
<path d="M0 0 C2.4132074 -0.06703354 4.57842284 -0.1058212 6.92871094 0.48413086 C10.31250402 1.32688838 13.77986758 1.37550523 17.25 1.5625 C17.99507812 1.60568359 18.74015625 1.64886719 19.5078125 1.69335938 C21.338349 1.79896725 23.16915176 1.89994201 25 2 C25 1.34 25 0.68 25 0 C25.66 0 26.32 0 27 0 C27 0.66 27 1.32 27 2 C28.32 2.33 29.64 2.66 31 3 C28.10352978 4.44823511 25.68835083 4.00519634 22.4609375 3.87890625 C20.50800781 3.80639648 20.50800781 3.80639648 18.515625 3.73242188 C17.13541196 3.67589606 15.75520368 3.61925392 14.375 3.5625 C12.98699781 3.50927707 11.59897703 3.45653668 10.2109375 3.40429688 C6.80707859 3.27428837 3.40348883 3.13931117 0 3 C0 2.01 0 1.02 0 0 Z " fill="#616161" transform="translate(147,208)"/>
<path d="M0 0 C2.66666667 1.33333333 5.33333333 2.66666667 8 4 C7.34 4 6.68 4 6 4 C6 5.32 6 6.64 6 8 C5.01 7.67 4.02 7.34 3 7 C0.36195411 7.39397335 0.36195411 7.39397335 -2 8 C-2 6.02 -2 4.04 -2 2 C-1.34 2 -0.68 2 0 2 C0 1.34 0 0.68 0 0 Z " fill="#676767" transform="translate(336,360)"/>
<path d="M0 0 C0.66 0 1.32 0 2 0 C2 0.99 2 1.98 2 3 C3.98 2.67 5.96 2.34 8 2 C7.34 3.98 6.68 5.96 6 8 C4.02 8 2.04 8 0 8 C0 5.36 0 2.72 0 0 Z " fill="#717171" transform="translate(257,240)"/>
<path d="M0 0 C3.84843669 5.77265503 3.12280578 13.24568227 3 20 C2.67 19.34 2.34 18.68 2 18 C1.34 18 0.68 18 0 18 C0 12.06 0 6.12 0 0 Z " fill="#383838" transform="translate(216,388)"/>
<path d="M0 0 C6.15234375 -0.09765625 6.15234375 -0.09765625 8 0 C9 1 9 1 9.0625 4.0625 C9.041875 5.031875 9.02125 6.00125 9 7 C8.34 6.67 7.68 6.34 7 6 C7 4.68 7 3.36 7 2 C6.34 2 5.68 2 5 2 C5 3.65 5 5.3 5 7 C4.67 7 4.34 7 4 7 C4 5.35 4 3.7 4 2 C3.34 2 2.68 2 2 2 C2 3.65 2 5.3 2 7 C1.34 7 0.68 7 0 7 C0 4.69 0 2.38 0 0 Z " fill="#B6B6B6" transform="translate(416,481)"/>
<path d="M0 0 C0 0.33 0 0.66 0 1 C-2.64 1 -5.28 1 -8 1 C-8 1.66 -8 2.32 -8 3 C-13.61 2.67 -19.22 2.34 -25 2 C-25 1.67 -25 1.34 -25 1 C-16.65667456 -0.19190363 -8.40676978 -0.09283549 0 0 Z " fill="#636363" transform="translate(72,332)"/>
<path d="M0 0 C1.32 0.33 2.64 0.66 4 1 C4 1.99 4 2.98 4 4 C3.34 4 2.68 4 2 4 C2 5.65 2 7.3 2 9 C0.125 9.625 0.125 9.625 -2 10 C-2.66 9.34 -3.32 8.68 -4 8 C-3.625 5.875 -3.625 5.875 -3 4 C-2.34 4 -1.68 4 -1 4 C-1.33 5.32 -1.66 6.64 -2 8 C-1.34 8 -0.68 8 0 8 C0 5.36 0 2.72 0 0 Z " fill="#D9D9D9" transform="translate(370,479)"/>
<path d="M0 0 C2.97 0 5.94 0 9 0 C9 1.98 9 3.96 9 6 C7.02 6 5.04 6 3 6 C3 4.35 3 2.7 3 1 C2.01 0.67 1.02 0.34 0 0 Z " fill="#717171" transform="translate(39,258)"/>
<path d="M0 0 C0.98484375 0.00902344 1.9696875 0.01804688 2.984375 0.02734375 C4.10585938 0.04474609 4.10585938 0.04474609 5.25 0.0625 C4.92 0.7225 4.59 1.3825 4.25 2.0625 C2.21875 2.44140625 2.21875 2.44140625 -0.25 2.625 C-3.29981525 2.6417263 -3.29981525 2.6417263 -5.75 4.0625 C-7.41617115 4.10313832 -9.08388095 4.105221 -10.75 4.0625 C-10.42 3.0725 -10.09 2.0825 -9.75 1.0625 C-6.58321116 -0.2085735 -3.37266213 -0.04015074 0 0 Z " fill="#696969" transform="translate(370.75,231.9375)"/>
<path d="M0 0 C0.66 0 1.32 0 2 0 C2 0.66 2 1.32 2 2 C3.32 2.33 4.64 2.66 6 3 C6 4.98 6 6.96 6 9 C5.34 9 4.68 9 4 9 C4 7.35 4 5.7 4 4 C3.34 4 2.68 4 2 4 C2 5.65 2 7.3 2 9 C1.34 9 0.68 9 0 9 C0 6.03 0 3.06 0 0 Z " fill="#B1B1B1" transform="translate(439,479)"/>
<path d="M0 0 C0.598125 0.20625 1.19625 0.4125 1.8125 0.625 C2.1425 1.945 2.4725 3.265 2.8125 4.625 C2.1525 4.625 1.4925 4.625 0.8125 4.625 C0.8125 3.635 0.8125 2.645 0.8125 1.625 C-1.91176311 3.97777269 -3.0016763 6.24996331 -4.1875 9.625 C-4.8475 9.295 -5.5075 8.965 -6.1875 8.625 C-5.875 5.25 -5.875 5.25 -5.1875 1.625 C-2.1875 -0.375 -2.1875 -0.375 0 0 Z " fill="#292929" transform="translate(214.1875,363.375)"/>
<path d="M0 0 C1.65 0 3.3 0 5 0 C5 2.31 5 4.62 5 7 C3.35 7 1.7 7 0 7 C0 4.69 0 2.38 0 0 Z " fill="#A9A9A9" transform="translate(446,481)"/>
<path d="M0 0 C0.66 0 1.32 0 2 0 C2 0.66 2 1.32 2 2 C2.78375 2.226875 3.5675 2.45375 4.375 2.6875 C7 4 7 4 8.3125 6.4375 C9 9 9 9 9 12 C6 11 6 11 4.5 8.125 C4.005 7.09375 3.51 6.0625 3 5 C2.01834406 3.98198643 1.02408568 2.9753197 0 2 C0 1.34 0 0.68 0 0 Z " fill="#3F3F3F" transform="translate(239,368)"/>
<path d="M0 0 C1.98 0 3.96 0 6 0 C6 0.99 6 1.98 6 3 C8.475 3.99 8.475 3.99 11 5 C11 5.99 11 6.98 11 8 C10.34 8 9.68 8 9 8 C9 7.34 9 6.68 9 6 C8.443125 5.938125 7.88625 5.87625 7.3125 5.8125 C4.05012827 4.66626128 2.31332126 2.50609803 0 0 Z " fill="#3C3C3C" transform="translate(228,360)"/>
<path d="M0 0 C1.37478516 0.01740234 1.37478516 0.01740234 2.77734375 0.03515625 C3.69644531 0.04417969 4.61554688 0.05320312 5.5625 0.0625 C6.27277344 0.07410156 6.98304688 0.08570313 7.71484375 0.09765625 C8.04484375 1.08765625 8.37484375 2.07765625 8.71484375 3.09765625 C7.27776285 3.15188572 5.84008913 3.19055348 4.40234375 3.22265625 C3.60183594 3.24585938 2.80132812 3.2690625 1.9765625 3.29296875 C-0.28515625 3.09765625 -0.28515625 3.09765625 -3.28515625 1.09765625 C-2.28515625 0.09765625 -2.28515625 0.09765625 0 0 Z " fill="#646464" transform="translate(352.28515625,488.90234375)"/>
<path d="M0 0 C0.66 0 1.32 0 2 0 C2 2.97 2 5.94 2 9 C1.34 9 0.68 9 0 9 C0 7.68 0 6.36 0 5 C-0.66 5 -1.32 5 -2 5 C-2.33 6.32 -2.66 7.64 -3 9 C-4.125 5.25 -4.125 5.25 -3 3 C-2.01 3 -1.02 3 0 3 C0 2.01 0 1.02 0 0 Z " fill="#B9B9B9" transform="translate(436,478)"/>
<path d="M0 0 C0.66 0 1.32 0 2 0 C2 0.99 2 1.98 2 3 C1.34 3 0.68 3 0 3 C0 3.66 0 4.32 0 5 C-5.625 8 -5.625 8 -9 8 C-8.4375 6.125 -8.4375 6.125 -7 4 C-3.375 2.75 -3.375 2.75 0 2 C0 1.34 0 0.68 0 0 Z " fill="#424242" transform="translate(136,392)"/>
<path d="M0 0 C0.99 0.495 0.99 0.495 2 1 C2 2.32 2 3.64 2 5 C3.32 3.68 4.64 2.36 6 1 C5.67 3.31 5.34 5.62 5 8 C4.34 8 3.68 8 3 8 C2.01 8.99 1.02 9.98 0 11 C0 7.37 0 3.74 0 0 Z " fill="#757575" transform="translate(93,272)"/>
<path d="M0 0 C2.71224618 1.61268692 5.37352812 3.24901874 8 5 C8 5.66 8 6.32 8 7 C6.02 7 4.04 7 2 7 C2 6.34 2 5.68 2 5 C0.68 5.33 -0.64 5.66 -2 6 C-1.67 5.38125 -1.34 4.7625 -1 4.125 C0.14193235 2.08981656 0.14193235 2.08981656 0 0 Z " fill="#515151" transform="translate(373,484)"/>
<path d="M0 0 C3.63 0.33 7.26 0.66 11 1 C11 1.66 11 2.32 11 3 C11.66 3.33 12.32 3.66 13 4 C8.17639811 4.19294408 4.50353262 3.75747614 0 2 C0 1.34 0 0.68 0 0 Z " fill="#6F6F6F" transform="translate(416,440)"/>
<path d="M0 0 C-0.83144531 0.72316406 -0.83144531 0.72316406 -1.6796875 1.4609375 C-2.40414062 2.09257812 -3.12859375 2.72421875 -3.875 3.375 C-4.59429687 4.00148438 -5.31359375 4.62796875 -6.0546875 5.2734375 C-7.4076598 6.47426834 -8.7208345 7.7208345 -10 9 C-10.36540804 4.49330085 -10.36540804 4.49330085 -8.75 2.3125 C-3.92307692 -1.30769231 -3.92307692 -1.30769231 0 0 Z " fill="#292929" transform="translate(176,345)"/>
<path d="M0 0 C0 2.31 0 4.62 0 7 C-2.64 5.68 -5.28 4.36 -8 3 C-8 2.34 -8 1.68 -8 1 C-5.23735711 0.40267181 -2.83967231 0 0 0 Z " fill="#6A6A6A" transform="translate(456,289)"/>
<path d="M0 0 C1.32 0.33 2.64 0.66 4 1 C3.67 2.65 3.34 4.3 3 6 C5.64 6.33 8.28 6.66 11 7 C11 7.33 11 7.66 11 8 C7.37 8 3.74 8 0 8 C0 5.36 0 2.72 0 0 Z " fill="#6B6B6B" transform="translate(232,226)"/>
<path d="M0 0 C0.33 1.65 0.66 3.3 1 5 C-0.98 5.33 -2.96 5.66 -5 6 C-5.33 4.35 -5.66 2.7 -6 1 C-4 0 -4 0 0 0 Z " fill="#535353" transform="translate(470,490)"/>
<path d="M0 0 C0.66 0 1.32 0 2 0 C2 0.99 2 1.98 2 3 C2.99 3 3.98 3 5 3 C5 5.31 5 7.62 5 10 C4.67 10 4.34 10 4 10 C4 8.35 4 6.7 4 5 C3.34 5 2.68 5 2 5 C2 6.32 2 7.64 2 9 C1.34 9 0.68 9 0 9 C0 6.03 0 3.06 0 0 Z " fill="#BBBBBB" transform="translate(386,478)"/>
<path d="M0 0 C2.31 0 4.62 0 7 0 C4.525 4.455 4.525 4.455 2 9 C1.34 8.67 0.68 8.34 0 8 C0 5.36 0 2.72 0 0 Z " fill="#464646" transform="translate(141,376)"/>
<path d="M0 0 C0 0.99 0 1.98 0 3 C-0.7425 3.12375 -1.485 3.2475 -2.25 3.375 C-4.80141485 3.95486701 -6.7267573 4.73708739 -9 6 C-8.625 3.5625 -8.625 3.5625 -8 1 C-5.29120665 -0.35439668 -2.99066732 -0.06501451 0 0 Z " fill="#2B2B2B" transform="translate(176,408)"/>
<path d="M0 0 C1.32 0.33 2.64 0.66 4 1 C4 1.66 4 2.32 4 3 C4.763125 3.12375 5.52625 3.2475 6.3125 3.375 C9 4 9 4 12 6 C12 6.66 12 7.32 12 8 C6.80421104 6.63919813 3.86388964 4.58789752 0 1 C0 0.67 0 0.34 0 0 Z " fill="#343434" transform="translate(218,368)"/>
<path d="M0 0 C1.32 0.33 2.64 0.66 4 1 C4.33 3.31 4.66 5.62 5 8 C3.68 7.67 2.36 7.34 1 7 C0.67 4.69 0.34 2.38 0 0 Z " fill="#6F6F6F" transform="translate(266,336)"/>
<path d="M0 0 C0.66 0.99 1.32 1.98 2 3 C2.66 2.67 3.32 2.34 4 2 C6.00800456 2.28112064 8.01014051 2.61067967 10 3 C10 3.33 10 3.66 10 4 C8.02 4 6.04 4 4 4 C3.67 4.66 3.34 5.32 3 6 C-0.3 5.67 -3.6 5.34 -7 5 C-7 4.67 -7 4.34 -7 4 C-5.02 3.67 -3.04 3.34 -1 3 C-0.67 2.01 -0.34 1.02 0 0 Z " fill="#6F6F6F" transform="translate(268,232)"/>
<path d="M0 0 C2.31 0 4.62 0 7 0 C6.34 0.66 5.68 1.32 5 2 C5.66 2.66 6.32 3.32 7 4 C3.37 4 -0.26 4 -4 4 C-3.01 3.67 -2.02 3.34 -1 3 C-0.67 2.01 -0.34 1.02 0 0 Z " fill="#696969" transform="translate(400,287)"/>
<path d="M0 0 C1.98 0.99 1.98 0.99 4 2 C3.34 2.66 2.68 3.32 2 4 C2 3.34 2 2.68 2 2 C1.34 2 0.68 2 0 2 C0 1.34 0 0.68 0 0 Z M0 4 C0.66 4 1.32 4 2 4 C2 4.66 2 5.32 2 6 C2.61875 5.814375 3.2375 5.62875 3.875 5.4375 C6 5 6 5 8 6 C8 6.66 8 7.32 8 8 C5.36 8 2.72 8 0 8 C0 6.68 0 5.36 0 4 Z " fill="#727272" transform="translate(64,280)"/>
<path d="M0 0 C2.97 0.495 2.97 0.495 6 1 C6.12375 2.134375 6.2475 3.26875 6.375 4.4375 C6.684375 6.2009375 6.684375 6.2009375 7 8 C7.66 8.33 8.32 8.66 9 9 C7.02 9 5.04 9 3 9 C3.66 6.69 4.32 4.38 5 2 C3.35 1.67 1.7 1.34 0 1 C0 0.67 0 0.34 0 0 Z " fill="#515151" transform="translate(478,477)"/>
<path d="M0 0 C1.65 0 3.3 0 5 0 C4.67 2.64 4.34 5.28 4 8 C3.54625 7.525625 3.0925 7.05125 2.625 6.5625 C1.06741796 4.90972192 1.06741796 4.90972192 -1 4 C-0.67 2.68 -0.34 1.36 0 0 Z " fill="#656565" transform="translate(275,464)"/>
<path d="M0 0 C0.99 0.33 1.98 0.66 3 1 C3 2.98 3 4.96 3 7 C1.68 7 0.36 7 -1 7 C-0.67 4.69 -0.34 2.38 0 0 Z " fill="#474747" transform="translate(35,432)"/>
<path d="M0 0 C0.99 0 1.98 0 3 0 C3.33 2.97 3.66 5.94 4 9 C2.68 9 1.36 9 0 9 C0 6.03 0 3.06 0 0 Z " fill="#B0B0B0" transform="translate(472,479)"/>
<path d="M0 0 C2.475 0.495 2.475 0.495 5 1 C5 2.65 5 4.3 5 6 C3.35 6.33 1.7 6.66 0 7 C0 5.68 0 4.36 0 3 C2 4 2 4 3 5 C3 3.68 3 2.36 3 1 C2.01 0.67 1.02 0.34 0 0 Z " fill="#B6B6B6" transform="translate(393,481)"/>
<path d="M0 0 C0.75 1.625 0.75 1.625 1 4 C-0.9375 7.25 -0.9375 7.25 -3 10 C-3.6875 8.3125 -3.6875 8.3125 -4 6 C-2.85213059 3.75643706 -1.7904233 1.7904233 0 0 Z M-6 10 C-5.01 10.495 -5.01 10.495 -4 11 C-4.99 11.495 -4.99 11.495 -6 12 C-6 11.34 -6 10.68 -6 10 Z " fill="#383838" transform="translate(142,385)"/>
<path d="M0 0 C5.50588235 0.48941176 5.50588235 0.48941176 7.875 2.9375 C9 5 9 5 9 7 C8.34 7 7.68 7 7 7 C6.38125 6.34 5.7625 5.68 5.125 5 C3.0008924 2.5430902 3.0008924 2.5430902 -1 3 C-0.67 2.01 -0.34 1.02 0 0 Z " fill="#3A3A3A" transform="translate(239,381)"/>
<path d="M0 0 C1.32 0 2.64 0 4 0 C4 1.98 4 3.96 4 6 C2.68 6.33 1.36 6.66 0 7 C0 4.69 0 2.38 0 0 Z " fill="#989898" transform="translate(406,481)"/>
<path d="M0 0 C1.65 0 3.3 0 5 0 C5 2.31 5 4.62 5 7 C4.67 7 4.34 7 4 7 C4 5.35 4 3.7 4 2 C3.34 2 2.68 2 2 2 C2 3.32 2 4.64 2 6 C1.34 6 0.68 6 0 6 C0 4.02 0 2.04 0 0 Z " fill="#BBBBBB" transform="translate(459,481)"/>
<path d="M0 0 C2.125 0.375 2.125 0.375 4 1 C3.67 1.66 3.34 2.32 3 3 C2.01 3.33 1.02 3.66 0 4 C0 4.66 0 5.32 0 6 C0.99 6.33 1.98 6.66 3 7 C1.68 7 0.36 7 -1 7 C-1.625 4.625 -1.625 4.625 -2 2 C-1.34 1.34 -0.68 0.68 0 0 Z " fill="#ABABAB" transform="translate(379,481)"/>
<path d="M0 0 C1.32 0.33 2.64 0.66 4 1 C4.33 3.31 4.66 5.62 5 8 C4.01 7.67 3.02 7.34 2 7 C0.8125 3.4375 0.8125 3.4375 0 0 Z " fill="#303030" transform="translate(211,380)"/>
<path d="M0 0 C2.125 0.9375 2.125 0.9375 4 2 C3.360625 2.28875 2.72125 2.5775 2.0625 2.875 C-0.15206079 3.82823451 -0.15206079 3.82823451 -1 6 C-2.32 6 -3.64 6 -5 6 C-4.67 4.68 -4.34 3.36 -4 2 C-4 2.66 -4 3.32 -4 4 C-3.34 4 -2.68 4 -2 4 C-2 3.01 -2 2.02 -2 1 C-1.34 0.67 -0.68 0.34 0 0 Z " fill="#6E6E6E" transform="translate(135,247)"/>
<path d="M0 0 C1.65 0 3.3 0 5 0 C5 1.98 5 3.96 5 6 C4.67 4.68 4.34 3.36 4 2 C3.34 2 2.68 2 2 2 C2 3.32 2 4.64 2 6 C1.34 6 0.68 6 0 6 C0 4.02 0 2.04 0 0 Z " fill="#BDBDBD" transform="translate(452,481)"/>
<path d="M0 0 C1.32 0 2.64 0 4 0 C4 2.31 4 4.62 4 7 C2.35 6.67 0.7 6.34 -1 6 C-1 5.34 -1 4.68 -1 4 C-0.01 4 0.98 4 2 4 C2 3.01 2 2.02 2 1 C1.34 0.67 0.68 0.34 0 0 Z " fill="#BDBDBD" transform="translate(427,481)"/>
<path d="M0 0 C0.66 0 1.32 0 2 0 C2.33 2.64 2.66 5.28 3 8 C2.01 8 1.02 8 0 8 C-1.125 2.25 -1.125 2.25 0 0 Z " fill="#727272" transform="translate(215,280)"/>
<path d="M0 0 C0 1.65 0 3.3 0 5 C-0.99 5 -1.98 5 -3 5 C-3.33 6.65 -3.66 8.3 -4 10 C-5 8 -5 8 -5 4 C-4.34 3.67 -3.68 3.34 -3 3 C-3.33 2.34 -3.66 1.68 -4 1 C-2 0 -2 0 0 0 Z " fill="#505050" transform="translate(94,208)"/>
<path d="M0 0 C4.44495972 -0.1234711 7.80753477 0.60251159 12 2 C9.47524538 3.26237731 7.68799534 3.09856404 4.875 3.0625 C3.96492187 3.05347656 3.05484375 3.04445312 2.1171875 3.03515625 C1.41851562 3.02355469 0.71984375 3.01195312 0 3 C0 2.01 0 1.02 0 0 Z " fill="#686868" transform="translate(147,208)"/>
<path d="M0 0 C0.66 0 1.32 0 2 0 C2 0.99 2 1.98 2 3 C2.66 3.33 3.32 3.66 4 4 C3.67 4.99 3.34 5.98 3 7 C1.35 7.33 -0.3 7.66 -2 8 C-1.33333333 5.33333333 -0.66666667 2.66666667 0 0 Z " fill="#454545" transform="translate(20,72)"/>
<path d="M0 0 C3.78125 0.7578125 3.78125 0.7578125 5.75 2.9375 C7 5 7 5 7 7 C7.66 7.33 8.32 7.66 9 8 C6.46089803 7.61479436 5.27248877 7.29902057 3.515625 5.37109375 C3.09796875 4.73300781 2.6803125 4.09492188 2.25 3.4375 C1.82203125 2.79683594 1.3940625 2.15617187 0.953125 1.49609375 C0.48132813 0.75552734 0.48132813 0.75552734 0 0 Z " fill="#343434" transform="translate(215,347)"/>
<path d="M0 0 C0.33 0 0.66 0 1 0 C1 1.65 1 3.3 1 5 C2.32 5.33 3.64 5.66 5 6 C4.01 6.495 4.01 6.495 3 7 C2.34 6.67 1.68 6.34 1 6 C1 6.66 1 7.32 1 8 C-0.32 8 -1.64 8 -3 8 C-3 6 -3 6 -1 4 C-0.3574765 1.93125966 -0.3574765 1.93125966 0 0 Z " fill="#6B6B6B" transform="translate(203,227)"/>
<path d="M0 0 C0.99 0.33 1.98 0.66 3 1 C-1.625 5.875 -1.625 5.875 -5 7 C-4.6189482 4.23737447 -4.16402868 3.15856106 -2.125 1.1875 C-1.42375 0.795625 -0.7225 0.40375 0 0 Z " fill="#343434" transform="translate(133,397)"/>
<path d="M0 0 C2.64 0.33 5.28 0.66 8 1 C7.01 2.485 7.01 2.485 6 4 C5.01 4 4.02 4 3 4 C3 3.01 3 2.02 3 1 C2.67 1.66 2.34 2.32 2 3 C1.34 3 0.68 3 0 3 C0 2.01 0 1.02 0 0 Z " fill="#707070" transform="translate(152,240)"/>
<path d="M0 0 C1.98 0.495 1.98 0.495 4 1 C3.34 1.66 2.68 2.32 2 3 C1.83312552 5.58354218 1.83312552 5.58354218 2 8 C1.01 8.495 1.01 8.495 0 9 C-0.84454356 5.62182575 -1.10844919 3.32534757 0 0 Z " fill="#626262" transform="translate(129,230)"/>
<path d="M0 0 C1.32 0 2.64 0 4 0 C4 1.65 4 3.3 4 5 C2.68 5 1.36 5 0 5 C0 3.35 0 1.7 0 0 Z " fill="#747474" transform="translate(496,198)"/>
<path d="M0 0 C1.32 0.33 2.64 0.66 4 1 C4 2.65 4 4.3 4 6 C2.68 6 1.36 6 0 6 C0 5.01 0 4.02 0 3 C0.66 3 1.32 3 2 3 C2 2.34 2 1.68 2 1 C1.34 0.67 0.68 0.34 0 0 Z " fill="#A5A5A5" transform="translate(485,479)"/>
<path d="M0 0 C0.66 0.99 1.32 1.98 2 3 C2.99 3.33 3.98 3.66 5 4 C5 4.66 5 5.32 5 6 C2.03 5.67 -0.94 5.34 -4 5 C-3.01 4.67 -2.02 4.34 -1 4 C-0.26676204 1.98491642 -0.26676204 1.98491642 0 0 Z " fill="#737373" transform="translate(418,452)"/>
<path d="M0 0 C2.97 0 5.94 0 9 0 C7.35 1.65 5.7 3.3 4 5 C4 3.68 4 2.36 4 1 C2.68 0.67 1.36 0.34 0 0 Z " fill="#6D6D6D" transform="translate(13,318)"/>
<path d="M0 0 C0.66 0 1.32 0 2 0 C2.9765625 6.0546875 2.9765625 6.0546875 3 8 C2.34 8.66 1.68 9.32 1 10 C0.67 6.7 0.34 3.4 0 0 Z " fill="#404040" transform="translate(130,238)"/>
<path d="M0 0 C3.63 0 7.26 0 11 0 C10.67 0.99 10.34 1.98 10 3 C3.375 2.25 3.375 2.25 0 0 Z " fill="#535353" transform="translate(428,229)"/>
<path d="M0 0 C0 0.99 0 1.98 0 3 C-2.64 3 -5.28 3 -8 3 C-7 1 -7 1 -5.125 0.375 C-3 0 -3 0 0 0 Z " fill="#6E6E6E" transform="translate(296,448)"/>
<path d="M0 0 C0.66 0.33 1.32 0.66 2 1 C2 2.98 2 4.96 2 7 C1.01 7 0.02 7 -1 7 C-0.67 4.69 -0.34 2.38 0 0 Z " fill="#828282" transform="translate(201,256)"/>
<path d="M0 0 C0.66 0 1.32 0 2 0 C2 2.64 2 5.28 2 8 C1.01 8 0.02 8 -1 8 C-0.67 5.36 -0.34 2.72 0 0 Z " fill="#696969" transform="translate(434,473)"/>
</svg>
